<svg version="1.2" xmlns="http://www.w3.org/2000/svg" viewBox="0 0 1532 1534" width="1532" height="1534">
	<title>logo-bnp-svg</title>
	<defs>
		<linearGradient id="g1" x1="765.1" y1="-37.7" x2="765.1" y2="1579" gradientUnits="userSpaceOnUse">
			<stop offset="0" stop-color="#008053"/>
			<stop offset=".6" stop-color="#7fcbae"/>
			<stop offset="1" stop-color="#00a76d"/>
		</linearGradient>
		<linearGradient id="g2" x1="762.7" y1="-380.5" x2="762.7" y2="1436.3" gradientUnits="userSpaceOnUse">
			<stop offset="0" stop-color="#00a76d"/>
			<stop offset=".3" stop-color="#7fcbae"/>
			<stop offset=".6" stop-color="#00a76d"/>
			<stop offset=".8" stop-color="#008053"/>
			<stop offset=".9" stop-color="#008558"/>
			<stop offset=".9" stop-color="#009264"/>
			<stop offset="1" stop-color="#00a97a"/>
			<stop offset="1" stop-color="#00ad7d"/>
		</linearGradient>
		<linearGradient id="g3" x1="1053.5" y1="1336" x2="1053.5" y2="160.3" gradientUnits="userSpaceOnUse">
			<stop offset="0" stop-color="#00b387"/>
			<stop offset="1" stop-color="#00a76d"/>
		</linearGradient>
		<linearGradient id="g4" x1="324.7" y1="1336" x2="324.7" y2="160" gradientUnits="userSpaceOnUse">
			<stop offset="0" stop-color="#00b387"/>
			<stop offset="1" stop-color="#00a76d"/>
		</linearGradient>
		<linearGradient id="g5" x1="551.7" y1="1335.8" x2="551.7" y2="160.5" gradientUnits="userSpaceOnUse">
			<stop offset="0" stop-color="#00b387"/>
			<stop offset="1" stop-color="#00a76d"/>
		</linearGradient>
		<linearGradient id="g6" x1="748" y1="1335.9" x2="748" y2="160.3" gradientUnits="userSpaceOnUse">
			<stop offset="0" stop-color="#00b387"/>
			<stop offset="1" stop-color="#00a76d"/>
		</linearGradient>
	</defs>
	<style>
		.s0 { fill: url(#g1) } 
		.s1 { fill: url(#g2) } 
		.s2 { fill: url(#g3) } 
		.s3 { fill: url(#g4) } 
		.s4 { fill: url(#g5) } 
		.s5 { fill: url(#g6) } 
		.s6 { fill: #ffffff } 
	</style>
	<g id="Layer">
		<g id="Layer">
			<path id="Layer" class="s0" d="m0 0h1531.8v1533.1h-1531.8z"/>
			<path id="Layer" class="s1" d="m1484.6 773.3c0 320.8 13.5 648.3 13.5 648.3 0 37.2-23.6 60.8-54 60.8h-1326c-30.4 0-50.6-27-54-60.8 0 0-37.1-280.2-37.1-705.7 0-428.9 40.5-628.1 40.5-628.1 3.4-33.8 23.6-60.8 54-60.8h1326c30.3 0 54 27 54 60.8-3.4 0-16.9 368.1-16.9 685.5z"/>
			<path id="Layer" class="s2" d="m1187.7 412c-94.5 54-124.9 60.8-226.1 121.5l3.4-10.1c54-57.4 77.6-84.4 111.3-135.1-94.4 6.8-232.8 16.9-330.6 37.2l6.7-10.2c91.1-43.9 256.5-87.8 340.8-97.9-20.2-30.4-188.9-121.5-229.4-138.4l3.3-10.2c128.3 13.5 297 74.3 367.8 118.2 30.4-10.1 64.1-10.1 121.5-16.9 0 0-10.1 33.8-70.9 77.7 16.9 40.5-20.2 273.5-54 334.3 0-94.5-6.7-216.1-43.8-270.1z"/>
			<path id="Layer" class="s3" d="m347.5 1215.6c-3.3 33.8 6.8 57.5 13.5 87.8l-3.3 10.2c-40.5-40.5-67.5-77.7-91.1-128.3-47.3-20.3-77.7-40.6-118.1-64.2l3.3-10.1c27-10.2 54-10.2 84.4-20.3-10.1-60.8-6.8-114.8 0-192.5v-6.7c16.9 67.5 27 138.4 57.3 189.1 37.2-6.8 74.3-23.7 118.1-30.4l-3.3 10.1c-23.7 33.8-37.2 60.8-50.6 97.9 40.4 40.6 91.1 54.1 141.7 74.3l-3.4 10.2c-57.4-3.4-97.9-10.2-148.5-27.1z"/>
			<path id="Layer" class="s4" d="m637.7 472.8c0 0-20.2 37.1-37.1 84.4h-3.4c118.1 16.9 229.5 64.1 256.4 81l-3.3 10.1c-121.5-20.2-185.6-20.2-232.8-13.5-43.9 3.4-54 10.2-54 10.2-27 57.4-40.5 151.9-47.3 185.7l-3.3 10.1c-23.7-54-54-162.1-54-162.1-60.8 33.8-202.5 165.5-202.5 165.5 77.6-155.3 158.6-226.2 158.6-226.2-27-27.1-97.8-40.6-151.8-43.9l3.4-10.2c33.7-10.1 101.2-13.5 145-16.9 54 0 84.4 0 84.4 0 43.9-37.1 114.7-70.9 141.7-74.2z"/>
			<path id="Layer" class="s5" d="m792.9 1208.9c40.5-20.3 84.4-57.4 121.5-81l-6.8 10.1c-37.1 37.1-67.5 67.5-111.3 101.3 3.4 16.9 13.5 23.6 16.9 33.8l-3.4 10.1c-16.9 3.4-40.5 3.4-64.1 3.4-47.3 30.4-111.4 50.6-158.6 60.7l3.4-10.1c23.6-16.9 54-33.8 77.6-54-30.4-6.8-57.4-16.9-84.4-30.4l3.4-10.1c37.1 0 84.3 3.3 124.8-6.8 27-30.4 50.6-57.4 74.3-91.2 0 23.7 3.3 40.6 6.7 64.2z"/>
			<path id="Layer" class="s6" d="m1194.4 401.8c-94.4 54.1-124.8 60.8-226 121.6 60.7-64.2 80.9-91.2 118.1-148.6-94.5 3.4-232.9 16.9-330.7 37.2 84.3-47.3 256.4-98 344.2-108.1-20.3-27-189-114.8-232.9-135.1 131.6 10.2 297 60.8 374.6 108.1 30.3-10.1 64.1-10.1 121.4-16.9-13.5 27-13.5 43.9-70.8 81.1 16.8 40.5-20.3 273.5-54 334.3 0-98-10.1-219.5-43.9-273.6z"/>
			<path id="Layer" class="s6" d="m357.7 1205.5c-6.8 37.2-3.4 64.2 6.7 97.9-40.5-40.5-67.5-77.6-91.1-128.3-43.9-20.2-77.6-40.5-118.1-64.1 27-13.5 54-20.3 87.7-30.4-10.1-60.8-10.1-114.8 0-192.5 13.5 70.9 27 124.9 60.8 182.3 37.1-10.1 70.8-13.5 114.7-20.2-23.6 33.8-37.1 60.8-50.6 97.9 40.5 40.5 81 64.2 134.9 84.4-57.3-3.3-101.2-10.1-145-27z"/>
			<path id="Layer" class="s6" d="m644.5 462.6c-16.9 23.7-37.2 64.2-40.5 81.1 138.3 20.2 253 91.1 253 91.1-121.4-20.2-185.6-20.2-232.8-13.5-43.9 3.4-54 10.2-54 10.2-33.7 70.9-54 195.8-54 195.8-23.6-54-54-162.1-54-162.1-60.7 33.8-202.4 165.5-202.4 165.5 77.6-155.3 158.6-226.3 158.6-226.3-27-27-97.9-40.5-151.8-43.9 26.9-10.1 97.8-23.6 151.8-27 54 0 84.3 0 84.3 0 43.9-33.7 114.8-67.5 141.8-70.9z"/>
			<path id="Layer" class="s6" d="m792.9 1195.4c43.9-20.3 77.6-40.5 118.1-67.5-33.7 37.1-67.5 67.5-111.3 101.3 3.3 20.2 6.7 30.3 10.1 43.9-16.9 3.3-40.5 3.3-64.1 3.3-47.3 30.4-111.4 50.7-158.6 60.8 30.4-20.2 54-37.1 84.3-64.1-30.3-6.8-57.3-16.9-84.3-30.4 47.2 0 84.3-3.4 131.6-16.9 27-30.4 50.6-57.4 74.2-91.2 0 23.6 0 40.5 0 60.8z"/>
		</g>
	</g>
</svg>