<svg viewBox="343.782 0 1279.902 333.3894230769231" xmlns="http://www.w3.org/2000/svg" version="1.2" style="max-height: 500px" width="1279.902" height="333.3894230769231">
	<title>logo-bnp-svg</title>
	<defs>
		<linearGradient gradientUnits="userSpaceOnUse" y2="344.6" x2="167" y1="-8.2" x1="167" id="g1">
			<stop stop-color="#008053" offset="0"/>
			<stop stop-color="#7fcbae" offset=".6"/>
			<stop stop-color="#00a76d" offset="1"/>
		</linearGradient>
		<linearGradient gradientUnits="userSpaceOnUse" y2="313.5" x2="166.5" y1="-83" x1="166.5" id="g2">
			<stop stop-color="#00a76d" offset="0"/>
			<stop stop-color="#7fcbae" offset=".3"/>
			<stop stop-color="#00a76d" offset=".6"/>
			<stop stop-color="#008053" offset=".8"/>
			<stop stop-color="#008558" offset=".9"/>
			<stop stop-color="#009264" offset=".9"/>
			<stop stop-color="#00a97a" offset="1"/>
			<stop stop-color="#00ad7d" offset="1"/>
		</linearGradient>
		<linearGradient gradientUnits="userSpaceOnUse" y2="35" x2="229.9" y1="291.6" x1="229.9" id="g3">
			<stop stop-color="#00b387" offset="0"/>
			<stop stop-color="#00a76d" offset="1"/>
		</linearGradient>
		<linearGradient gradientUnits="userSpaceOnUse" y2="34.9" x2="70.9" y1="291.6" x1="70.9" id="g4">
			<stop stop-color="#00b387" offset="0"/>
			<stop stop-color="#00a76d" offset="1"/>
		</linearGradient>
		<linearGradient gradientUnits="userSpaceOnUse" y2="35" x2="120.4" y1="291.5" x1="120.4" id="g5">
			<stop stop-color="#00b387" offset="0"/>
			<stop stop-color="#00a76d" offset="1"/>
		</linearGradient>
		<linearGradient gradientUnits="userSpaceOnUse" y2="35" x2="163.2" y1="291.6" x1="163.2" id="g6">
			<stop stop-color="#00b387" offset="0"/>
			<stop stop-color="#00a76d" offset="1"/>
		</linearGradient>
	</defs>
	<style>
		.s0 { fill: url(#g1) } 
		.s1 { fill: url(#g2) } 
		.s2 { fill: url(#g3) } 
		.s3 { fill: url(#g4) } 
		.s4 { fill: url(#g5) } 
		.s5 { fill: url(#g6) } 
		.s6 { fill: #ffffff } 
	</style>
	<g id="Layer">
		<g id="Layer">
			<path d="m0 0h334.3v334.6h-334.3z" class="s0" id="Layer"/>
			<path d="m324 168.8c0 70 2.9 141.5 2.9 141.5 0 8.1-5.1 13.2-11.7 13.2h-289.4c-6.7 0-11.1-5.9-11.8-13.2 0 0-8.1-61.2-8.1-154.1 0-93.6 8.8-137 8.8-137 0.8-7.4 5.2-13.3 11.8-13.3h289.4c6.6 0 11.8 5.9 11.8 13.3-0.8 0-3.7 80.3-3.7 149.6z" class="s1" id="Layer"/>
			<path d="m259.2 89.9c-20.6 11.8-27.2 13.3-49.3 26.5l0.7-2.2c11.8-12.5 16.9-18.4 24.3-29.5-20.6 1.5-50.8 3.7-72.2 8.2l1.5-2.3c19.9-9.5 56-19.1 74.4-21.3-4.4-6.7-41.3-26.6-50.1-30.2l0.7-2.3c28 3 64.8 16.3 80.3 25.8 6.6-2.2 14-2.2 26.5-3.6 0 0-2.2 7.3-15.4 16.9 3.6 8.8-4.5 59.7-11.8 73 0-20.7-1.5-47.2-9.6-59z" class="s2" id="Layer"/>
			<path d="m75.8 265.3c-0.7 7.4 1.5 12.5 3 19.2l-0.7 2.2c-8.9-8.9-14.8-17-19.9-28-10.3-4.5-17-8.9-25.8-14l0.7-2.2c5.9-2.3 11.8-2.3 18.4-4.5-2.2-13.2-1.4-25 0-42v-1.4c3.7 14.7 5.9 30.2 12.6 41.2 8.1-1.4 16.2-5.1 25.7-6.6l-0.7 2.2c-5.2 7.4-8.1 13.3-11 21.4 8.8 8.8 19.8 11.8 30.9 16.2l-0.8 2.2c-12.5-0.7-21.3-2.2-32.4-5.9z" class="s3" id="Layer"/>
			<path d="m139.2 103.2c0 0-4.4 8.1-8.1 18.4h-0.8c25.8 3.7 50.1 14 56 17.7l-0.7 2.2c-26.5-4.4-40.5-4.4-50.8-3-9.6 0.8-11.8 2.3-11.8 2.3-5.9 12.5-8.9 33.1-10.3 40.5l-0.8 2.2c-5.1-11.8-11.8-35.4-11.8-35.4-13.2 7.4-44.1 36.1-44.1 36.1 16.9-33.9 34.6-49.3 34.6-49.3-5.9-5.9-21.4-8.9-33.2-9.6l0.8-2.2c7.3-2.2 22.1-3 31.6-3.7 11.8 0 18.4 0 18.4 0 9.6-8.1 25.1-15.5 31-16.2z" class="s4" id="Layer"/>
			<path d="m173 263.8c8.9-4.4 18.5-12.5 26.6-17.7l-1.5 2.3c-8.1 8.1-14.7 14.7-24.3 22.1 0.7 3.6 2.9 5.1 3.7 7.3l-0.8 2.2c-3.7 0.8-8.8 0.8-14 0.8-10.3 6.6-24.3 11-34.6 13.2l0.8-2.2c5.1-3.6 11.7-7.3 16.9-11.8-6.6-1.4-12.5-3.6-18.4-6.6l0.7-2.2c8.1 0 18.4 0.7 27.3-1.5 5.9-6.6 11-12.5 16.2-19.9 0 5.2 0.7 8.9 1.4 14z" class="s5" id="Layer"/>
			<path d="m260.7 87.7c-20.6 11.8-27.3 13.3-49.4 26.5 13.3-14 17.7-19.9 25.8-32.4-20.6 0.7-50.8 3.7-72.2 8.1 18.5-10.3 56-21.4 75.2-23.6-4.5-5.9-41.3-25-50.9-29.5 28.8 2.3 64.8 13.3 81.8 23.6 6.6-2.2 14-2.2 26.5-3.7-3 5.9-3 9.6-15.5 17.7 3.7 8.9-4.4 59.7-11.8 73 0-21.4-2.2-47.9-9.5-59.7z" class="s6" id="Layer"/>
			<path d="m78.1 263.1c-1.5 8.1-0.8 14 1.4 21.4-8.8-8.9-14.7-17-19.9-28-9.5-4.5-16.9-8.9-25.7-14 5.9-3 11.8-4.5 19.1-6.7-2.2-13.2-2.2-25 0-42 3 15.5 5.9 27.3 13.3 39.8 8.1-2.2 15.4-2.9 25-4.4-5.1 7.4-8.1 13.3-11 21.4 8.8 8.8 17.6 14 29.4 18.4-12.5-0.7-22.1-2.2-31.6-5.9z" class="s6" id="Layer"/>
			<path d="m140.6 101c-3.6 5.1-8.1 14-8.8 17.6 30.2 4.5 55.2 19.9 55.2 19.9-26.5-4.4-40.5-4.4-50.8-2.9-9.5 0.7-11.8 2.2-11.8 2.2-7.3 15.5-11.7 42.8-11.7 42.8-5.2-11.8-11.8-35.4-11.8-35.4-13.3 7.4-44.2 36.1-44.2 36.1 16.9-33.9 34.6-49.4 34.6-49.4-5.9-5.9-21.3-8.8-33.1-9.6 5.9-2.2 21.3-5.1 33.1-5.9 11.8 0 18.4 0 18.4 0 9.6-7.3 25.1-14.7 30.9-15.4z" class="s6" id="Layer"/>
			<path d="m173 260.9c9.6-4.4 17-8.9 25.8-14.8-7.3 8.2-14.7 14.8-24.3 22.2 0.8 4.4 1.5 6.6 2.2 9.5-3.7 0.8-8.8 0.8-14 0.8-10.3 6.6-24.3 11-34.6 13.2 6.7-4.4 11.8-8.1 18.4-14-6.6-1.4-12.5-3.7-18.4-6.6 10.3 0 18.4-0.7 28.7-3.7 5.9-6.6 11.1-12.5 16.2-19.9 0 5.2 0 8.9 0 13.3z" class="s6" id="Layer"/>
			<path d="m417.5 109.1h59.7c20.6 0.7 42.7 8.1 42.7 27.2 0 11.8-10.3 22.1-25.1 25.8 19.9 5.9 31 17 31 31.7 0 23.6-28 31.7-54.5 31.7h-53v-1.5c1.4-14.7 1.4-49.3 1.4-59.7 0-11-0.7-42-1.4-53.8zm31.6 14c0 15.5-0.7 33.2-0.7 41.3 0 6.6 0 30.2 0.7 47.2 3.7 0 9.6 0 13.3 0 22.1 0 33.1-6.7 33.1-19.2 0-3.7-1.5-7.3-3.7-10.3-5.1-6.6-16.2-10.3-28.7-10.3h-6.6l6.6-16.2h0.7c11.1 0.7 19.2-2.2 23.6-7.4 2.2-2.2 3-5.2 3-8.8 0-12.6-8.1-17-31-17-3.7 0-8.1 0-10.3 0.7zm201-13.2h2.3v0.7c-0.8 11.8-1.5 42.8-1.5 53.8 0 10.3 0 45 1.5 59.7v1.5h-22.1v-0.8c-2.2-4.4-49.4-72.2-49.4-72.9-4.4-6.6-5.9-8.9-6.6-12.5 0 28 0 56.7 1.5 84.7v1.5h-27.3v-1.5c1.5-14.7 1.5-49.4 1.5-59.7 0-11-0.7-42-1.5-53.8v-1.5h30.2c9.6 11.8 36.8 53.8 36.8 54.6 8.1 11.8 9.6 14 11.1 18.4-1.5-14-1.5-28.7-2.2-43.5l-0.8-29.5h26.5zm32.4 0.8v-1.5h50.9c24.3 0.7 53 6.6 53 33.9 0 23.6-20.6 34.6-63.4 34.6 0 0-8.8 0-10.3 0 0 15.5 0.8 35.4 1.5 46.5v1.4h-32.4v-1.4c1.5-14.8 1.5-49.4 1.5-59.7 0-11.1-0.8-42-1.5-53.8zm29.5 13.2c0 8.2 0 17 0 24.4 0 5.9 0 11 0 14.7 1.4 0 9.5 0 9.5 0 15.5 0 34.6-3.7 34.6-20.6 0-3.7-1.4-7.4-3.6-10.3q-7.8-8.9-31-8.9c-3.6 0-7.3 0.7-9.5 0.7zm135.5-14.7h50.8c24.3 0.7 53.7 6.6 53.7 33.9 0 23.6-20.6 34.6-63.3 34.6 0 0-8.8 0-10.3 0 0 15.5 0.7 35.4 1.5 46.5v1.4h-32.4v-1.4c1.4-14.8 1.4-49.4 1.4-59.7 0-11.1-0.7-42-1.4-53.8zm30.1 14.7c0 8.1 0 17 0 24.3 0 5.9 0 11.1 0 14.8 1.5 0 9.6 0 9.6 0 15.5 0 34.6-3.7 34.6-20.7 0-3.6-1.4-7.3-3.7-10.3q-7.7-8.8-30.9-8.8c-3.7 0-7.3 0.7-9.6 0.7zm137.7-14.7l51.6 116.4h-31.7v-0.7c-1.4-4.4-5.1-14-10.3-26.5-0.7 0-22.8 0-22.8 0 0 0-21.4 0-22.8 0-3.7 9.5-7.4 18.4-9.6 26.5v0.7h-27.3l0.8-1.5c5.9-13.2 44.9-98 51.5-114.9zm-29.4 73.7c2.2 0 30.9 0 30.9 0 0 0 1.5 0 2.9 0-7.3-18.4-14.7-33.2-16.9-39.1-5.1 11.1-11 24.3-16.9 39.1zm95-73.7h50.8c25 0.7 53.7 7.3 53.7 33.9 0 14.7-8.8 25-26.5 30.2l0.8 0.7c9.5 14 32.4 47.2 33.8 49.4l0.8 1.5h-34.6v-0.8c-7.4-14-24.3-42.7-36.1-59.6l-1.5-2.3 2.2 0.8c0 0 3 0 6.6 0 11.8-0.8 24.3-7.4 24.3-20.7 0-3.6-1.4-7.3-3.6-10.3-5.2-5.9-16.2-8.8-31-8.8-2.9 0-6.6 0.7-8.8 0.7-0.7 14.8-0.7 32.4-0.7 40.6 0 10.3 0.7 44.9 2.2 59.6v1.5h-32.4v-1.5c1.4-14.7 1.4-49.3 1.4-59.6 0-11.1-0.7-42.1-1.4-53.8zm160.5 0v0.7c-0.7 11.8-1.5 42.7-1.5 53.8 0 10.3 0 44.9 1.5 59.7v1.5h-32.4v-1.5c1.5-14.8 1.5-49.4 1.5-59.7 0-11.1-0.8-42-1.5-53.8v-0.7zm28.7 0h59.7c20.6 0.7 42.7 8.1 42.7 27.2 0 11.8-10.3 22.1-25.1 25.8 19.9 5.9 31 17 31 31.7 0 23.6-28 31.7-54.5 31.7h-53.8v-1.5c1.5-14.7 1.5-49.4 1.5-59.7 0-11-0.8-42-1.5-53.8zm30.2 14c-0.7 15.5-0.7 33.2-0.7 41.3 0 6.6 0 30.2 0.7 47.2 3.7 0 9.6 0 13.3 0 22.8 0 33.8-6.7 33.8-19.2 0-3.7-0.7-7.4-3.7-10.3-5.8-6.6-16.2-10.3-28.7-10.3h-5.9l5.9-16.2h0.8c11 0.7 19.1-2.3 23.5-7.4 2.2-2.2 3-5.2 3-8.9 0-12.5-8.1-16.9-31-16.9-3.6 0-8.1 0-11 0.7zm208.4 102.5h-31.7v-0.8c-1.4-4.4-5.1-14-10.3-26.5 0 0-44.9 0-45.6 0q-5.6 14.4-8.9 26.5v0.8h-28l0.8-1.5c3.7-7.4 44.2-96.5 50.8-114.2v-0.8h21.3zm-81-43.5c2.3 0 31 0 31 0q0 0 2.2 0c-7.4-18.4-14-33.9-17-39-5.1 11.8-11 25-16.2 39zm140-78.8c11 0 22 2.2 28.7 3.7l6.6 1.5v25.7l-6.6-2.9c-7.4-2.9-19.9-8.1-33.2-8.1-17.6 0-17.6 7.4-17.6 10.3 0 8.9 14 14 27.9 19.9 19.2 7.4 39.8 15.5 39.8 36.9 0 22.8-20.6 36.1-54.5 36.1-12.5 0-25.8-3-32.4-4.5h-2.2l-3.7-0.7v-25l5.2 2.9c14 6.6 25.8 9.6 36.8 10.3 11 0.8 17.7-1.5 21.4-5.1 1.4-2.3 2.2-4.5 2.2-7.4 0-9.6-14.8-15.5-28.8-21.4-17.6-7.4-38.2-15.5-38.2-36.1 0-20.6 19.1-34.6 48.6-36.1z" class="s6" fill-rule="evenodd" id="Layer"/>
		</g>
	</g>
</svg>