<svg xmlns="http://www.w3.org/2000/svg" width="250" height="120" viewBox="0 0 250 120" version="1.1"><path d="M 124.720 5 C 120.988 16.199, 117.422 22.259, 107.952 33.500 C 97.990 45.324, 93.658 59.372, 96.922 69.263 C 98.383 73.690, 103.955 80.185, 109.660 84.110 C 114.941 87.744, 116.268 87.295, 112.718 83.077 C 109.630 79.407, 108.509 73.537, 109.906 68.349 C 110.480 66.217, 113.246 61.779, 116.052 58.486 C 118.859 55.194, 122.061 50.750, 123.168 48.611 L 125.182 44.722 127.582 48.948 C 128.902 51.272, 131.846 55.272, 134.123 57.837 C 139.671 64.085, 141.312 68.229, 140.779 74.648 C 140.475 78.315, 139.541 80.913, 137.623 83.428 C 136.124 85.393, 135.322 87, 135.840 87 C 137.870 87, 146.670 80.104, 149.723 76.121 C 158.973 64.052, 156.043 50.146, 140.045 30.201 C 131.773 19.888, 129.787 16.596, 126.982 8.551 C 125.954 5.604, 125.012 4.125, 124.720 5 M 2 110 L 2 120 7 120 C 11.333 120, 12 119.733, 12 118 C 12 116.444, 11.333 116, 9 116 C 6.667 116, 6 115.556, 6 114 C 6 112.704, 6.667 112, 7.893 112 C 9.911 112, 10.986 110.304, 10.269 108.250 C 10.030 107.563, 8.971 107, 7.917 107 C 6.863 107, 6 106.550, 6 106 C 6 105.450, 7.350 105, 9 105 C 11.533 105, 12 104.611, 12 102.500 C 12 100.167, 11.667 100, 7 100 L 2 100 2 110 M 14 110 C 14 119.333, 14.133 120, 16 120 C 17.715 120, 18.005 119.322, 18.033 115.250 L 18.065 110.500 20.160 115.250 C 21.811 118.993, 22.758 120, 24.627 120 C 26.967 120, 27 119.860, 27 109.930 C 27 100.060, 26.956 99.867, 24.750 100.180 C 22.803 100.457, 22.512 101.073, 22.586 104.750 C 22.634 107.088, 22.542 109, 22.383 109 C 22.224 109, 21.198 106.975, 20.103 104.500 C 18.675 101.271, 17.532 100, 16.056 100 C 14.118 100, 14 100.576, 14 110 M 28 109.948 L 28 120 33.573 120 C 38.342 120, 39.098 119.747, 38.812 118.250 C 38.611 117.201, 37.280 116.300, 35.489 116 C 32.069 115.428, 31.425 112.793, 34.500 111.955 C 37.128 111.239, 37.196 107.502, 34.582 107.496 C 31.156 107.488, 31.685 105.154, 35.189 104.818 C 37.727 104.574, 38.500 104.033, 38.500 102.500 C 38.500 100.792, 37.733 100.456, 33.250 100.198 L 28 99.895 28 109.948 M 40 110 C 40 119.333, 40.133 120, 42 120 C 43.635 120, 44.009 119.316, 44.052 116.250 L 44.103 112.500 45.658 116.250 C 46.829 119.073, 47.793 120, 49.556 120 C 51.837 120, 51.861 119.911, 50.458 116.553 C 49.545 114.368, 49.381 112.883, 50.009 112.494 C 51.410 111.629, 51.244 102.644, 49.800 101.200 C 49.140 100.540, 46.665 100, 44.300 100 L 40 100 40 110 M 53.035 101.934 C 51.919 104.020, 51.612 115.826, 52.607 118.418 C 53.043 119.556, 54.558 120, 58 120 C 63.385 120, 64 119.263, 64 112.809 C 64 108.795, 63.988 108.783, 60.500 109.190 C 57.396 109.552, 57 109.338, 57 107.299 C 57 104.786, 57.972 104.372, 59.733 106.133 C 61.283 107.683, 64 106.472, 64 104.231 C 64 101.402, 61.958 100, 57.835 100 C 55.136 100, 53.777 100.548, 53.035 101.934 M 65 100.533 C 65 100.827, 66.125 103.287, 67.500 106 C 69.073 109.105, 70 112.614, 70 115.467 C 70 119.333, 70.294 120, 72 120 C 73.706 120, 74 119.333, 74 115.467 C 74 112.614, 74.927 109.105, 76.500 106 C 79.552 99.977, 79.552 100, 76.661 100 C 75.088 100, 73.898 100.902, 73.029 102.750 L 71.738 105.500 70.786 102.750 C 70.100 100.771, 69.156 100, 67.417 100 C 66.088 100, 65 100.240, 65 100.533 M 87.035 101.934 C 85.593 104.629, 85.717 117.317, 87.200 118.800 C 87.860 119.460, 90.287 120, 92.593 120 C 97.311 120, 98 119.098, 98 112.918 C 98 109.231, 97.823 109, 95 109 C 92.667 109, 92 109.444, 92 111 C 92 112.100, 92.436 113, 92.969 113 C 93.501 113, 93.678 113.675, 93.362 114.500 C 92.138 117.688, 91 115.760, 91 110.500 C 91 106.278, 91.348 105, 92.500 105 C 93.325 105, 94 105.450, 94 106 C 94 107.536, 96.991 107.186, 97.608 105.578 C 97.908 104.796, 97.654 103.221, 97.042 102.078 C 95.511 99.219, 88.542 99.118, 87.035 101.934 M 99 110 C 99 119.333, 99.133 120, 101 120 C 102.635 120, 103.009 119.316, 103.052 116.250 L 103.103 112.500 104.658 116.250 C 105.681 118.715, 106.863 120, 108.107 120 C 110.247 120, 110.413 119.216, 109.038 115.601 C 108.422 113.981, 108.422 112.857, 109.038 112.476 C 110.417 111.624, 110.227 102.627, 108.800 101.200 C 108.140 100.540, 105.665 100, 103.300 100 L 99 100 99 110 M 111.667 100.667 C 111.300 101.033, 111 105.533, 111 110.667 L 111 120 116.500 120 C 121.333 120, 122 119.758, 122 118 C 122 116.444, 121.333 116, 119 116 C 116.729 116, 116 115.543, 116 114.117 C 116 113.048, 116.903 111.997, 118.087 111.688 C 120.620 111.025, 120.287 107.430, 117.712 107.639 C 114.819 107.874, 115.820 105.154, 118.750 104.816 C 120.719 104.590, 121.591 103.861, 121.820 102.250 C 122.114 100.179, 121.749 100, 117.236 100 C 114.540 100, 112.033 100.300, 111.667 100.667 M 123.713 100.621 C 123.321 101.013, 123 105.533, 123 110.667 L 123 120 128.500 120 C 133.333 120, 134 119.758, 134 118 C 134 116.393, 133.333 116, 130.611 116 C 127.997 116, 127.254 115.600, 127.361 114.250 C 127.438 113.287, 128.400 112.255, 129.500 111.955 C 131.823 111.322, 132.252 107.500, 130 107.500 C 126.898 107.500, 127.121 105.490, 130.277 105 C 132.667 104.629, 133.500 103.983, 133.500 102.500 C 133.500 100.837, 132.735 100.450, 128.963 100.204 C 126.467 100.041, 124.105 100.229, 123.713 100.621 M 135 110 C 135 119.333, 135.133 120, 137 120 C 138.705 120, 139.015 119.300, 139.100 115.250 L 139.199 110.500 141.285 115.250 C 142.908 118.948, 143.883 120, 145.685 120 C 147.951 120, 148 119.787, 148 110 C 148 100.667, 147.867 100, 146 100 C 144.287 100, 143.993 100.682, 143.953 104.750 L 143.907 109.500 141.434 104.750 C 139.750 101.514, 138.330 100, 136.981 100 C 135.138 100, 135 100.699, 135 110 M 156.571 101.571 C 153.587 104.555, 154.806 109.331, 159.121 111.563 C 161.855 112.976, 163.135 116, 161 116 C 160.450 116, 160 115.550, 160 115 C 160 114.450, 158.875 114, 157.500 114 C 154.763 114, 154.047 116.647, 156.200 118.800 C 158.025 120.625, 165.656 120.340, 166.393 118.418 C 168.214 113.674, 166.325 109.306, 161.750 107.683 C 159.887 107.023, 159.322 105, 161 105 C 161.550 105, 162 105.450, 162 106 C 162 106.550, 163.125 107, 164.500 107 C 166.442 107, 167 106.487, 167 104.700 C 167 103.435, 166.460 101.860, 165.800 101.200 C 164.088 99.488, 158.427 99.716, 156.571 101.571 M 169.080 101.403 C 168.342 102.293, 168.023 105.859, 168.208 111.153 L 168.500 119.500 173.500 119.500 L 178.500 119.500 178.791 110.585 C 179.002 104.127, 178.727 101.443, 177.791 100.850 C 175.719 99.535, 170.348 99.876, 169.080 101.403 M 181 110 L 181 120 185.500 120 C 189.333 120, 190 119.704, 190 118 C 190 116.533, 189.333 116, 187.500 116 C 185.042 116, 185 115.867, 185 108 C 185 100.667, 184.833 100, 183 100 C 181.133 100, 181 100.667, 181 110 M 192.214 109.750 L 192.500 119.500 197.500 119.500 L 202.500 119.500 202.786 109.750 C 203.057 100.515, 202.965 100, 201.036 100 C 199.158 100, 199 100.619, 199 108 C 199 114.444, 198.708 116, 197.500 116 C 196.292 116, 196 114.444, 196 108 C 196 100.619, 195.842 100, 193.964 100 C 192.035 100, 191.943 100.515, 192.214 109.750 M 204 102.094 C 204 103.346, 204.803 104.397, 206 104.710 C 207.772 105.174, 208 106.074, 208 112.617 C 208 119.333, 208.181 120, 210 120 C 211.819 120, 212 119.333, 212 112.617 C 212 106.074, 212.228 105.174, 214 104.710 C 215.197 104.397, 216 103.346, 216 102.094 C 216 100.201, 215.423 100, 210 100 C 204.577 100, 204 100.201, 204 102.094 M 217.701 100.632 C 217.316 101.018, 217 105.533, 217 110.667 C 217 119.991, 217.002 120, 219.536 120 L 222.072 120 221.786 110.262 C 221.556 102.415, 221.199 100.466, 219.951 100.227 C 219.099 100.064, 218.087 100.246, 217.701 100.632 M 224.080 101.403 C 223.342 102.293, 223.023 105.859, 223.208 111.153 L 223.500 119.500 228.500 119.500 L 233.500 119.500 233.792 111.153 C 234.124 101.661, 233.336 100, 228.500 100 C 226.710 100, 224.721 100.631, 224.080 101.403 M 235.667 100.667 C 235.300 101.033, 235 105.533, 235 110.667 C 235 119.956, 235.012 120, 237.500 120 C 239.761 120, 240.008 119.594, 240.084 115.750 L 240.169 111.500 242.122 115.750 C 243.452 118.642, 244.703 120, 246.038 120 C 247.858 120, 248 119.269, 248 109.927 C 248 100.873, 247.823 99.887, 246.250 100.186 C 245.043 100.416, 244.345 101.754, 244 104.500 L 243.500 108.481 241.598 104.240 C 239.835 100.310, 237.457 98.877, 235.667 100.667 M 44 107 C 44 108.111, 44.667 109, 45.500 109 C 46.333 109, 47 108.111, 47 107 C 47 105.889, 46.333 105, 45.500 105 C 44.667 105, 44 105.889, 44 107 M 103 107 C 103 108.111, 103.667 109, 104.500 109 C 105.333 109, 106 108.111, 106 107 C 106 105.889, 105.333 105, 104.500 105 C 103.667 105, 103 105.889, 103 107 M 172 110.500 C 172 114.722, 172.348 116, 173.500 116 C 174.652 116, 175 114.722, 175 110.500 C 175 106.278, 174.652 105, 173.500 105 C 172.348 105, 172 106.278, 172 110.500 M 227 110.500 C 227 114.722, 227.348 116, 228.500 116 C 229.652 116, 230 114.722, 230 110.500 C 230 106.278, 229.652 105, 228.500 105 C 227.348 105, 227 106.278, 227 110.500 M 57 113.941 C 57 115.073, 57.450 116, 58 116 C 58.550 116, 59 115.352, 59 114.559 C 59 113.766, 58.550 112.840, 58 112.500 C 57.450 112.160, 57 112.809, 57 113.941" stroke="none" fill="#dc6404" fill-rule="evenodd"/><path d="M 85 1.106 C 85 1.714, 86.121 3.544, 87.491 5.172 C 88.862 6.801, 90.718 10.691, 91.617 13.817 C 92.515 16.942, 93.878 20.733, 94.646 22.240 C 97.337 27.525, 109.191 31.271, 110.709 27.316 C 111.091 26.320, 110.073 23.154, 108.217 19.566 C 105.424 14.167, 105.351 13.830, 107.555 16.500 C 108.917 18.150, 110.545 21.188, 111.174 23.250 C 112.612 27.970, 113.692 27.981, 115.649 23.298 C 120.178 12.458, 106.978 0, 90.962 0 C 87.274 0, 85 0.422, 85 1.106" stroke="none" fill="#73cc34" fill-rule="evenodd"/></svg>