<svg xmlns="http://www.w3.org/2000/svg" width="1500" height="1114" viewBox="0 0 1500 1114" version="1.1"><path d="M 787.245 278.060 C 790.034 284.702, 839.523 405.579, 872.993 487.500 C 895.689 543.050, 926.766 619.100, 942.054 656.500 L 969.850 724.500 981.925 726.065 C 988.566 726.925, 994 727.485, 994 727.307 C 994 727.054, 954.833 633.634, 940.896 600.645 C 937.957 593.690, 937.396 591.517, 938.750 592.335 C 939.163 592.584, 943.731 592.394, 948.903 591.913 C 1025.812 584.753, 1060.400 496.193, 1007.103 442.897 C 972.928 408.721, 914.153 406.861, 878.763 438.833 C 873.900 443.227, 878.140 451.606, 843.054 368.257 C 812.427 295.500, 812.427 295.500, 805.464 290.235 C 793.304 281.041, 786.621 276.575, 787.245 278.060 M 714 546.476 L 714 709.951 750.004 710.226 L 786.007 710.500 785.754 563.622 L 785.500 416.744 750.115 399.872 C 730.653 390.592, 714.566 383, 714.365 383 C 714.164 383, 714 456.564, 714 546.476 M 489 604.546 L 489 723.227 493.250 722.620 C 498.204 721.912, 543.673 717.397, 555.750 716.414 L 564 715.742 564 611.438 C 564 512.972, 563.902 507.105, 562.250 506.600 C 561.288 506.307, 545.200 501.766, 526.500 496.511 C 507.800 491.256, 491.712 486.711, 490.750 486.411 C 489.090 485.893, 489 491.976, 489 604.546" stroke="none" fill="#ffffff" fill-rule="evenodd"/><path d="M 786.233 332.783 C 786.380 363.153, 786.157 388, 785.737 388 C 785.318 388, 764.899 377.425, 740.362 364.500 C 715.826 351.575, 695.182 341, 694.488 341 C 693.794 341, 689.462 342.988, 684.863 345.418 C 680.263 347.848, 667.941 354.260, 657.480 359.668 C 647.019 365.076, 621.933 378.050, 601.734 388.500 L 565.009 407.500 565.004 444.750 C 565.001 475.725, 564.768 482, 563.622 482 C 562.864 482, 542.457 475.917, 518.271 468.482 L 474.299 454.964 426.649 479.575 L 379 504.185 379 622.074 C 379 739.962, 379 739.962, 376.750 740.486 C 375.512 740.775, 365.500 742.834, 354.500 745.062 C 294.249 757.264, 225.711 776.701, 181 794.264 C 146.379 807.864, 88.106 836.439, 90.372 838.705 C 90.599 838.932, 98.595 836.214, 108.142 832.665 C 183.293 804.732, 278.959 781.370, 386.697 764.639 C 389.338 764.229, 395.238 757.415, 331.500 828.385 L 282.500 882.945 270.750 882.973 L 259 883 259 858.478 L 259 833.957 239.750 834.228 L 220.500 834.500 220.500 899.500 L 220.500 964.500 239.750 964.772 L 259 965.043 259 939.022 L 259 913 270.429 913 L 281.858 913 304.538 939 L 327.219 965 351.193 965 C 365.907 965, 375.038 964.633, 374.833 964.050 C 374.650 963.527, 360.843 947.961, 344.151 929.458 C 313.801 895.817, 313.801 895.817, 316.240 893.158 C 326.523 881.947, 438.646 760.133, 439.899 758.811 C 442.748 755.804, 512.865 748.772, 582.492 744.509 C 610.791 742.777, 677.733 740.400, 678.436 741.103 C 678.705 741.372, 679.054 779.908, 679.212 826.740 L 679.500 911.889 669.500 902.165 C 664 896.817, 646.039 879.292, 629.587 863.220 L 599.674 834 583.837 834 L 568 834 568 899.500 L 568 965 585.500 965 L 603 965 603 923.764 L 603 882.529 615.750 895.110 C 622.763 902.030, 642.120 920.586, 658.767 936.346 L 689.033 965 702.017 965 L 715 965 715 852.420 L 715 739.841 748.750 740.458 C 858.715 742.469, 937.147 747.967, 1028.500 760.065 C 1144.697 775.454, 1260.515 802.637, 1343.325 833.954 C 1361.269 840.741, 1361.275 840.026, 1343.357 829.954 C 1261.276 783.811, 1132.933 746.586, 990 727.467 C 966.481 724.321, 972.826 732.641, 948.452 672.992 C 937.104 645.222, 916.878 595.725, 903.505 563 C 890.132 530.275, 862.460 462.550, 842.011 412.500 C 821.562 362.450, 800.968 312.050, 796.247 300.500 C 791.526 288.950, 787.281 279.065, 786.815 278.533 C 786.348 278.001, 786.086 302.414, 786.233 332.783 M 798 521.833 L 798 711 802.500 711 L 807 711 807 531.651 L 807 352.302 803.170 343.154 C 801.063 338.123, 799.038 333.705, 798.670 333.336 C 798.301 332.968, 798 417.792, 798 521.833 M 714 545.932 L 714 709.715 749.750 710.237 C 769.413 710.524, 785.837 710.561, 786.250 710.320 C 786.663 710.079, 787 643.978, 787 563.428 L 787 416.975 781.750 414.599 C 776.663 412.298, 769.202 408.731, 731.750 390.696 L 714 382.148 714 545.932 M 580.250 413.584 L 577 415.006 577 565.063 L 577 715.121 580.750 714.810 L 584.500 714.500 584.753 563.250 C 584.892 480.063, 584.667 412.037, 584.253 412.082 C 583.839 412.126, 582.038 412.803, 580.250 413.584 M 489 604.392 C 489 709.381, 489.173 723, 490.506 723 C 491.335 723, 505.623 721.657, 522.256 720.015 C 538.890 718.374, 555.313 716.763, 558.750 716.436 L 565 715.841 565 611.498 C 565 507.155, 565 507.155, 561.750 506.127 C 557.945 504.924, 495.796 487.466, 491.750 486.464 C 489 485.783, 489 485.783, 489 604.392 M 435.849 833.564 C 362.855 846.774, 357.274 945.869, 428.500 964.054 C 481.267 977.527, 529.684 957.662, 538.380 918.972 C 551.819 859.188, 505.850 820.896, 435.849 833.564 M 799.450 833.404 C 750.537 842.688, 727.522 887.411, 748.710 932 C 771.630 980.234, 872.336 980.575, 896.084 932.500 C 925.512 872.927, 873.302 819.386, 799.450 833.404 M 927.264 877.250 C 928.052 956.689, 956.571 981.253, 1029.200 965.050 C 1067.269 956.557, 1074.906 941.321, 1074.965 873.750 L 1075 834 1055.541 834 L 1036.082 834 1035.791 876.250 C 1035.471 922.743, 1035.506 922.479, 1028.835 928.701 C 1017.490 939.283, 985.030 938.987, 973.658 928.196 C 966.425 921.332, 966.533 922.095, 966.199 875.750 L 965.899 834 946.367 834 L 926.835 834 927.264 877.250 M 1097.652 840.750 C 1097.301 844.462, 1097.011 851.663, 1097.007 856.750 L 1097 866 1134.674 866 L 1172.347 866 1133.674 904.125 L 1095 942.251 1095 953.633 L 1095 965.014 1161.250 964.757 L 1227.500 964.500 1227.775 948.762 L 1228.051 933.024 1189.680 932.762 L 1151.309 932.500 1167.905 916.522 C 1177.032 907.734, 1193.838 891.536, 1205.250 880.526 L 1226 860.508 1226 847.254 L 1226 834 1162.145 834 L 1098.289 834 1097.652 840.750 M 450.231 863.072 C 429.349 865.089, 420 876.159, 420 898.866 C 420 923.001, 428.692 933.467, 451.019 936.216 C 488.556 940.838, 508.357 918.107, 497.659 882.673 C 492.944 867.057, 477.036 860.483, 450.231 863.072 M 813.070 863.125 C 788.093 865.412, 776.149 887.809, 784.905 915.942 C 793.084 942.221, 846.367 945.317, 858.686 920.230 C 875.149 886.705, 853.364 859.434, 813.070 863.125" stroke="none" fill="#4b2b14" fill-rule="evenodd"/><path d="M 463.200 10.200 C 461.387 12.013, 461.568 12.925, 467.602 32.410 C 470.684 42.360, 479.416 70.525, 487.008 95 C 512.240 176.349, 529.847 233.431, 531.547 239.394 C 538.335 263.220, 531.110 274.787, 499.624 290.502 C 467.256 306.657, 460.588 304.653, 440.858 272.839 C 431.401 257.590, 428.623 254.440, 425.641 255.584 C 423.017 256.591, 423.520 258.062, 432.914 276.828 C 448.906 308.775, 448.028 319.227, 428.093 334.195 C 422.817 338.157, 414 344.982, 408.500 349.362 C 382.173 370.329, 380.506 369.630, 324.950 314.346 C 280.835 270.448, 277 267.424, 277 276.534 C 277 276.738, 292.808 295.489, 312.130 318.202 C 355.778 369.515, 358.083 373.115, 356.746 387.869 C 355.833 397.934, 354.789 399.473, 328.312 429.773 C 314.752 445.291, 307.590 444.451, 275.565 423.587 C 257.038 411.516, 252.859 409.890, 252.225 414.500 C 252.014 416.030, 256.065 419.758, 269.477 430.377 C 301.082 455.399, 303.304 463.402, 286.479 491.621 C 275.824 509.491, 273.117 511.922, 261.453 514.089 C 250.963 516.037, 244.480 513.953, 189.418 490.931 C 129.559 465.903, 131.526 466.648, 128.954 468.024 C 122.974 471.225, 120.486 469.684, 189.164 505.307 C 252.211 538.009, 256.282 544.596, 241.501 590 C 238.010 600.725, 233.236 616.436, 230.892 624.914 C 222.855 653.990, 217.852 656.645, 178.947 652.473 C 151.712 649.553, 148.686 649.469, 146.930 651.584 C 143.963 655.159, 146.765 656.225, 173.130 661.549 C 203.257 667.633, 206.940 669.391, 212.843 680.500 C 215.976 686.395, 216.425 702.380, 214.212 729.187 C 212.007 755.904, 212.529 782.335, 215.250 781.748 C 216.488 781.481, 227.038 778.288, 238.696 774.653 C 275.260 763.250, 315.652 752.929, 354.500 745.062 C 365.500 742.834, 375.512 740.775, 376.750 740.486 C 379 739.962, 379 739.962, 379 622.074 L 379 504.185 426.649 479.575 L 474.299 454.964 518.271 468.482 C 542.457 475.917, 562.864 482, 563.622 482 C 564.768 482, 565.001 475.725, 565.004 444.750 L 565.009 407.500 601.734 388.500 C 621.933 378.050, 647.019 365.076, 657.480 359.668 C 667.941 354.260, 680.263 347.848, 684.863 345.418 C 689.462 342.988, 693.794 341, 694.488 341 C 695.182 341, 715.826 351.575, 740.362 364.500 C 764.899 377.425, 785.318 388, 785.737 388 C 786.157 388, 786.380 363.393, 786.233 333.317 C 785.922 269.720, 784.493 274.935, 799.296 285.662 C 813.905 296.249, 808.663 286.318, 843.552 369.500 C 877.675 450.852, 873.835 443.285, 878.745 438.849 C 914.153 406.860, 972.920 408.713, 1007.103 442.897 C 1060.400 496.193, 1025.812 584.753, 948.903 591.913 C 943.731 592.394, 939.163 592.584, 938.750 592.335 C 937.096 591.336, 938.766 595.578, 958.546 642.628 C 969.847 669.508, 982.520 699.685, 986.708 709.689 C 994.324 727.879, 994.324 727.879, 997.912 728.425 C 1088.910 742.267, 1150.159 755.856, 1217.115 777.056 C 1225.703 779.775, 1233.310 782, 1234.018 782 C 1235.502 782, 1234.805 735.725, 1233.041 717.082 C 1229.733 682.129, 1241.206 668.415, 1280.414 660.455 C 1301.082 656.259, 1303.933 655.034, 1301.070 651.584 C 1299.339 649.498, 1295.299 649.560, 1273.116 652.014 C 1235.351 656.192, 1224.483 649.369, 1214.154 615 C 1211.923 607.575, 1208.268 596.100, 1206.033 589.500 C 1191.330 546.086, 1198.525 536.490, 1275.880 496.341 C 1321.823 472.495, 1324.337 470.856, 1319.188 468.101 C 1316.483 466.653, 1317.264 466.362, 1262 489.454 C 1186.052 521.190, 1178.705 521.123, 1159.535 488.523 C 1144.870 463.585, 1147.852 454.386, 1178.362 430.461 C 1195.853 416.745, 1196.972 415.543, 1194.533 413.105 C 1192.276 410.848, 1189.627 412.130, 1170.144 424.905 C 1142.038 443.336, 1131.774 443.919, 1117.799 427.879 C 1079.351 383.750, 1079.401 383.580, 1157.545 292.534 C 1171.734 276.002, 1171.513 276.323, 1169.964 274.456 C 1167.065 270.964, 1164.659 272.957, 1129.058 308.343 C 1092.660 344.521, 1088.884 347.797, 1077.230 353.305 C 1058.777 362.026, 1051.230 359.195, 1013.624 329.447 C 999.227 318.058, 999.555 306.126, 1015.091 276.106 C 1023.896 259.094, 1024.671 256.578, 1021.485 255.356 C 1019.013 254.407, 1016.855 257.071, 1005.501 275.091 C 991.999 296.520, 987.343 300.347, 974.727 300.389 C 968.084 300.411, 967.526 300.198, 945.480 289.188 C 918.087 275.509, 914.986 271.988, 915.008 254.591 C 915.023 242.253, 913.950 246.083, 949.484 131.500 C 990.253 0.033, 986.688 12.259, 984.806 10.377 C 979.510 5.081, 975.667 13.959, 897.337 212.417 C 879.634 257.270, 873.330 259.990, 819.737 245.905 C 806.391 242.397, 803.061 231.898, 805.335 200.500 C 806.817 180.039, 806.749 179, 803.916 179 C 800.541 179, 799.195 183.240, 795.983 204 C 790.828 237.308, 788.633 239.840, 765.900 238.697 C 736.177 237.202, 735.415 235.290, 731.973 153.500 C 728.046 60.182, 728.540 65.504, 723.865 66.165 C 719.625 66.765, 719.275 70.687, 716.689 146.500 C 713.845 229.875, 714.030 228.681, 702.995 234.883 C 676.302 249.885, 657.346 237.746, 651.428 201.859 C 648.096 181.650, 647.227 179, 643.937 179 C 640.935 179, 640.864 180.104, 642.455 202.017 C 644.744 233.549, 641.579 241.699, 625.258 246.303 C 569.906 261.918, 570.006 261.970, 548.253 207 C 469.397 7.742, 468.269 5.131, 463.200 10.200 M 798 521.833 L 798 711 802.500 711 L 807 711 807 531.651 L 807 352.302 803.170 343.154 C 801.063 338.123, 799.038 333.705, 798.670 333.336 C 798.301 332.968, 798 417.792, 798 521.833 M 580.250 413.584 L 577 415.006 577 565.063 L 577 715.121 580.750 714.810 L 584.500 714.500 584.753 563.250 C 584.892 480.063, 584.667 412.037, 584.253 412.082 C 583.839 412.126, 582.038 412.803, 580.250 413.584 M 786 563.300 L 786.500 710.500 786.753 564.053 C 786.893 483.508, 786.668 417.268, 786.253 416.853 C 785.839 416.439, 785.725 482.340, 786 563.300 M 564.482 611.500 C 564.482 669.250, 564.602 692.728, 564.750 663.673 C 564.897 634.619, 564.897 587.369, 564.750 558.673 C 564.602 529.978, 564.482 553.750, 564.482 611.500 M 730.667 1003.667 C 730.300 1004.033, 730 1022.708, 730 1045.167 L 730 1086 734.988 1086 C 739.976 1086, 739.976 1086, 740.612 1082.023 C 741.248 1078.046, 741.248 1078.046, 743.302 1080.657 C 753.960 1094.207, 780.297 1087.250, 786.425 1069.266 C 796.444 1039.861, 766.134 1014.794, 744.750 1034.801 C 742 1037.374, 742 1037.374, 742 1020.187 L 742 1003 736.667 1003 C 733.733 1003, 731.033 1003.300, 730.667 1003.667 M 930 1044.500 L 930 1086 936 1086 L 942 1086 942 1044.500 L 942 1003 936 1003 L 930 1003 930 1044.500 M 226.566 1009.343 C 223.201 1012.708, 223.263 1016.275, 226.734 1019.006 C 231.622 1022.851, 238.333 1019.954, 238.333 1014 C 238.333 1007.784, 231.020 1004.889, 226.566 1009.343 M 852.734 1008.994 C 847.127 1013.405, 851.378 1021.959, 858.484 1020.565 C 862.082 1019.859, 864 1017.576, 864 1014 C 864 1008.035, 857.580 1005.182, 852.734 1008.994 M 1010.566 1009.343 C 1005.722 1014.187, 1009.665 1021.917, 1016.303 1020.589 C 1020.513 1019.747, 1022.333 1017.758, 1022.333 1014 C 1022.333 1007.784, 1015.020 1004.889, 1010.566 1009.343 M 325.625 1029.469 C 323.493 1030.229, 320.293 1032.262, 318.513 1033.988 L 315.276 1037.125 314.626 1033.063 C 313.976 1029, 313.976 1029, 308.988 1029 L 304 1029 304 1057.500 L 304 1086 310 1086 L 316 1086 316 1067.460 C 316 1045.212, 316.905 1042.257, 324.782 1038.772 C 337.754 1033.034, 342 1039.786, 342 1066.148 L 342 1086 347.943 1086 L 353.886 1086 354.193 1065.563 C 354.537 1042.645, 355.371 1040.324, 364.095 1037.975 C 376.224 1034.708, 379.400 1040.416, 379.825 1066.250 L 380.150 1086 386.075 1086 L 392 1086 392 1069.136 C 392 1031.190, 375.368 1015.308, 355.533 1034.314 L 351.128 1038.534 348.437 1035.161 C 343.339 1028.772, 334.070 1026.459, 325.625 1029.469 M 479.625 1029.469 C 477.493 1030.229, 474.248 1032.306, 472.412 1034.085 L 469.075 1037.320 468.410 1033.160 C 467.744 1029, 467.744 1029, 462.872 1029 L 458 1029 458 1057.500 L 458 1086 464 1086 L 470 1086 470 1067.234 C 470 1045.060, 470.612 1043.020, 478.455 1039.078 C 491.265 1032.639, 495.407 1038.962, 495.807 1065.570 L 496.114 1086 502.057 1086 L 508 1086 508 1066.077 C 508 1041.902, 511.537 1035.304, 523.303 1037.535 C 532.199 1039.223, 533.434 1042.583, 533.840 1066.204 L 534.181 1086 539.590 1086 L 545 1086 544.990 1065.250 C 544.974 1030.043, 529.029 1016.105, 509.433 1034.168 L 505.048 1038.210 502.315 1034.963 C 497.034 1028.687, 487.974 1026.493, 479.625 1029.469 M 627.205 1029.894 C 601.718 1038.698, 601.309 1076.617, 626.603 1085.787 C 652.985 1095.353, 677.194 1068.314, 664.490 1043.473 C 657.860 1030.508, 642.073 1024.759, 627.205 1029.894 M 1103.703 1029.442 C 1077.746 1038.701, 1077.255 1076.533, 1102.970 1085.909 C 1113.458 1089.733, 1135.953 1086.908, 1134.549 1081.943 C 1134.247 1080.874, 1133.732 1079.059, 1133.404 1077.909 C 1132.951 1076.321, 1132.288 1075.970, 1130.654 1076.452 C 1111.854 1081.993, 1098.413 1077.072, 1095.959 1063.750 L 1095.269 1060 1116.766 1060 L 1138.263 1060 1137.790 1052.750 C 1136.592 1034.413, 1120.539 1023.436, 1103.703 1029.442 M 1219.994 1030.279 C 1217.522 1031.582, 1214.513 1034.106, 1213.307 1035.887 C 1211.115 1039.126, 1211.115 1039.126, 1210.807 1034.313 C 1210.426 1028.339, 1200.428 1026.326, 1200.563 1032.250 C 1200.597 1033.763, 1200.709 1046.475, 1200.813 1060.500 L 1201 1086 1206.388 1086 L 1211.777 1086 1212.184 1068.250 C 1212.713 1045.204, 1215.158 1040.144, 1226.307 1039.022 C 1231.500 1038.500, 1231.500 1038.500, 1231.500 1033.500 C 1231.500 1027.270, 1227.709 1026.209, 1219.994 1030.279 M 225.667 1029.667 C 225.300 1030.033, 225 1042.858, 225 1058.167 L 225 1086 231 1086 L 237 1086 237 1057.500 L 237 1029 231.667 1029 C 228.733 1029, 226.033 1029.300, 225.667 1029.667 M 851.667 1029.667 C 851.300 1030.033, 851 1042.858, 851 1058.167 L 851 1086 857 1086 L 863 1086 863 1057.500 L 863 1029 857.667 1029 C 854.733 1029, 852.033 1029.300, 851.667 1029.667 M 1009.667 1029.667 C 1009.300 1030.033, 1009 1042.858, 1009 1058.167 L 1009 1086 1015 1086 L 1021 1086 1021 1057.500 L 1021 1029 1015.667 1029 C 1012.733 1029, 1010.033 1029.300, 1009.667 1029.667 M 1104.966 1038.250 C 1102.029 1039.733, 1099.745 1041.864, 1098.271 1044.500 C 1094.050 1052.045, 1093.971 1052, 1111.579 1052 C 1127.159 1052, 1127.159 1052, 1126.459 1048.750 C 1124.111 1037.846, 1114.789 1033.292, 1104.966 1038.250 M 629.500 1038.803 C 612.191 1049.829, 619.619 1080.636, 639.134 1078.761 C 655.750 1077.165, 661.769 1049.804, 647.707 1039.791 C 643.328 1036.674, 633.666 1036.149, 629.500 1038.803 M 753.594 1038.041 C 739.607 1042.225, 737.334 1069.721, 750.424 1076.380 C 761.618 1082.075, 773.873 1075.569, 775.946 1062.830 C 778.729 1045.731, 767.929 1033.753, 753.594 1038.041" stroke="none" fill="#fbab14" fill-rule="evenodd"/></svg>