<svg xmlns="http://www.w3.org/2000/svg" width="471" height="233" viewBox="0 0 471 233" version="1.1"><path d="M 171.283 127.371 C 137.448 152.278, 150.180 194.806, 198.266 217.500 C 210.601 223.321, 221.938 226.121, 235.500 226.696 C 245.002 227.099, 247.835 226.817, 256.304 224.625 C 273.852 220.084, 287.187 212.136, 294.271 201.997 C 299.653 194.292, 301.381 187.602, 300.713 177.055 C 300.208 169.094, 297.660 158.998, 296.156 159.001 C 295.795 159.002, 295.500 162.939, 295.500 167.751 C 295.500 175.401, 295.131 177.254, 292.564 182.500 C 286.503 194.886, 272.937 204.778, 257.500 208.068 C 249.121 209.853, 232.133 209.589, 222 207.516 C 200.835 203.186, 176.707 186.312, 168.851 170.345 C 165.796 164.137, 165.501 162.739, 165.513 154.518 C 165.524 146.530, 165.877 144.758, 168.609 139 C 170.305 135.425, 173.334 130.363, 175.340 127.750 C 177.346 125.138, 178.589 123, 178.103 123 C 177.618 123, 174.548 124.967, 171.283 127.371" stroke="none" fill="#00acdf" fill-rule="evenodd"/><path d="M 198.864 117.750 C 188.584 123.001, 179.030 132.535, 176.068 140.500 C 173.809 146.574, 172.992 157.939, 174.444 163.096 C 175.965 168.496, 179.285 177, 179.872 176.999 C 180.217 176.998, 180.507 172.611, 180.515 167.249 C 180.528 158.522, 180.824 156.939, 183.335 152.144 C 184.878 149.199, 188.134 144.851, 190.570 142.483 C 193.158 139.968, 195 137.265, 195 135.982 C 195 134.774, 197.925 129.591, 201.500 124.463 C 205.075 119.336, 208 114.884, 208 114.570 C 208 113.405, 206.021 114.094, 198.864 117.750" stroke="none" fill="#237939" fill-rule="evenodd"/><path d="M 291 134.443 L 291 145.887 296.489 151.078 C 306.250 160.309, 310.364 172.170, 308.084 184.505 C 306.945 190.664, 302.061 202.170, 299.282 205.241 C 298.400 206.215, 297.964 207.297, 298.313 207.646 C 299.315 208.648, 313.315 193.995, 316.304 188.815 C 326.743 170.727, 321.924 151.751, 301.812 131.750 C 296.973 126.938, 292.561 123, 292.007 123 C 291.390 123, 291 127.428, 291 134.443" stroke="none" fill="#fc1404" fill-rule="evenodd"/><path d="M 272.250 25.199 L 261 42.683 261 120.842 C 261 178.204, 261.300 199, 262.128 199 C 264.508 199, 273.839 192.856, 278.241 188.392 C 282.771 183.797, 282.853 183.595, 283.473 175.612 C 283.820 171.150, 283.967 131.548, 283.802 87.608 L 283.500 7.715 272.250 25.199 M 240.742 72.813 L 228.983 90.581 229.242 147.041 L 229.500 203.500 239 203.463 C 244.225 203.443, 249.738 203.097, 251.250 202.694 L 254 201.962 254 128.481 C 254 88.066, 253.662 55.010, 253.250 55.023 C 252.838 55.035, 247.209 63.041, 240.742 72.813 M 211.370 117.750 C 205.472 126.412, 200.051 134.388, 199.324 135.473 C 198.309 136.984, 198 143.568, 198 163.640 L 198 189.835 204.014 193.851 C 209.386 197.438, 219.476 202, 222.038 202 C 222.641 202, 223 183.368, 223 152 C 223 124.500, 222.796 102, 222.547 102 C 222.297 102, 217.268 109.088, 211.370 117.750" stroke="none" fill="#3a7e8f" fill-rule="evenodd"/></svg>