<?xml version="1.0"?>
<svg width="370" height="99.7" xmlns="http://www.w3.org/2000/svg" xmlns:svg="http://www.w3.org/2000/svg">
 <g class="layer">
  <title>Layer 1</title>
  <path d="m57.7,23c-3.9,-1.6 -8,-2.7 -11.7,-2.7c-5.4,0 -8.1,1.2 -8.1,3.2c0,6 24.1,1.2 24.1,13.9c0,5.3 -4.9,9.3 -14.9,9.3c-5.9,0 -10.5,-1.2 -15.8,-4.1l2.2,-4.7c4.6,2.6 8.9,3.7 13.6,3.7c5.9,0 9,-1.7 9,-4.2c0,-6.5 -24.1,-1.7 -24.1,-13.6c0,-5.1 4.9,-8.7 13.8,-8.7c5.3,0 9.8,1.2 14,3.3l-2.1,4.6zm26.8,23.9c-9.6,0 -17.6,-6.4 -17.6,-16c0,-9.5 8,-16 17.6,-16c9.7,0 17.5,6.5 17.5,16c0.1,9.6 -7.8,16 -17.5,16m0,-26.8c-7,0 -11.8,4.7 -11.8,10.8c0,6.2 4.6,10.9 11.8,10.9s11.7,-4.7 11.7,-10.9c0.1,-6.1 -4.5,-10.8 -11.7,-10.8m40.5,26.8c-10.1,0 -17.7,-6.4 -17.7,-16c0,-9.4 7.7,-16 17.7,-16c6,0 10.2,1.7 14.1,4.5l-3,4.4c-2.8,-2.1 -6.3,-3.7 -10.9,-3.7c-7.4,0 -12,4.7 -12,10.7c0,6.2 4.6,10.8 12,10.8c4.6,0 8.3,-1.5 11.1,-3.6l3,4.4c-3.8,2.9 -8.3,4.5 -14.3,4.5m20,-30.9l6,0l0,30l-6,0l0,-30zm14,30l0,-30l28,0l0,5l-22,0l0,7l17,0l0,5l-17,0l0,8l23,0l0,5l-29,0zm50,-25l0,25l-6,0l0,-25l-12,0l0,-5l30,0l0,5l-12,0zm17,25l0,-30l27,0l0,5l-22,0l0,7l17,0l0,5l-17,0l0,8l23,0l0,5l-28,0zm-177.5,35.8c3.1,0 6.5,-0.7 8.5,-1.8l0,-9l6,0l0,11.9c-4,2.6 -9.3,4.1 -14.5,4.1c-10.1,0 -17.8,-6.4 -17.8,-16c0,-9.4 7.7,-15.9 17.7,-15.9c5.8,0 10.2,1.6 14,4.5l-3,4.4c-2.8,-2.1 -6.3,-3.6 -10.9,-3.6c-7.4,-0.2 -12,4.6 -12,10.6c0,6.4 4.6,10.8 12,10.8m21.5,4.2l0,-30l28,0l0,5l-22,0l0,7l17,0l0,5l-17,0l0,8l23,0l0,5l-29,0zm39,0l-5,0l0,-30l5.7,0l19.7,22.8c-0.3,-5.7 -0.5,-10.3 -0.5,-14.8l0,-8l6,0l0,30l-6,0l-19.6,-22.6l-0.3,0.1c0.2,4.5 0,12.4 0,14.9l0,7.6zm34,0l0,-30l27,0l0,5l-22,0l0,7l17,0l0,5l-17,0l0,8l23,0l0,5l-28,0zm48.6,-11l-8.6,0l0,11l-6,0l0,-30l19.4,0c6.4,0 10.4,4 10.4,9.7c0,5.4 -3.9,8.5 -8.7,9.2l9,11.2l-7,0l-8.5,-11.1zm4.2,-5c3.5,0 5.5,-1.8 5.5,-4.4c0,-2.9 -1.7,-4.6 -4.9,-4.6l-13.4,0l0,9l12.8,0zm22.8,9l-3.5,7l-6.1,0l14.7,-30l5.9,0l14.7,30l-6,0l-3.5,-7l-16.2,0zm2.3,-5l11.6,0l-5.8,-12.2l-5.8,12.2zm28.1,12l0,-30l5,0l0,25l20,0l0,5l-25,0zm29,0l0,-30l28,0l0,5l-22,0l0,7l17,0l0,5l-17,0l0,8l23,0l0,5l-29,0z" fill="#ffffff" id="svg_1"/>
 </g>
</svg>